<svg xmlns="http://www.w3.org/2000/svg" width="98.19" height="98.19" viewBox="0 0 98.19 98.19"><defs><style>.cls-1{fill:#27aae1;}.cls-2{fill:#2e3192;}.cls-3{fill:#fff;}</style></defs><g id="Layer_2" data-name="Layer 2"><g id="Layer_1-2" data-name="Layer 1"><circle class="cls-1" cx="49.1" cy="49.1" r="45.85" transform="translate(-2.84 95.17) rotate(-86.58)"/><path class="cls-1" d="M49.1,0A49.1,49.1,0,1,0,98.19,49.1,49.1,49.1,0,0,0,49.1,0Zm39,75.41A47.12,47.12,0,0,1,67.42,92.47a47,47,0,0,1-44.64-4.34A47.32,47.32,0,0,1,10.06,75.41a47,47,0,0,1,0-52.63A47.32,47.32,0,0,1,22.78,10.06a47,47,0,0,1,52.64,0A47.47,47.47,0,0,1,88.13,22.78a47,47,0,0,1,0,52.63Z"/><path class="cls-2" d="M44.51,21.13c2.27-.29,3.67-3.84,3.26-7S45.29,9.36,43,9.66,39.16,12,39.57,15.18,42.25,21.43,44.51,21.13Z"/><path class="cls-2" d="M38.43,19.53c-1.3-2.42-3.55-3-5.4-2s-2.59,3.2-1.28,5.63,4.17,4.15,6,3.15S39.74,22,38.43,19.53Z"/><path class="cls-2" d="M53.68,21.13c-2.26-.29-3.67-3.84-3.26-7s2.48-4.76,4.75-4.46S59,12,58.62,15.18,55.94,21.43,53.68,21.13Z"/><path class="cls-2" d="M59.76,19.53c1.31-2.42,3.56-3,5.4-2s2.59,3.2,1.28,5.63-4.17,4.15-6,3.15S58.45,22,59.76,19.53Z"/><path class="cls-2" d="M35.17,45c3.39,5.86,11.62,4.32,14.23.79C52,49.33,60.25,50.87,63.63,45,70.07,33.87,57,26.28,51.23,22.37a3.58,3.58,0,0,0-3.72.08C41.59,26.22,28.76,33.91,35.17,45Z"/><path class="cls-3" d="M32.55,59A2,2,0,0,0,34,58.55l-1.61-.13V56.26l4.17-.33v1.28l.3,4H34v-.09a4.86,4.86,0,0,1-3.41-.17,4.11,4.11,0,0,1-1.41-1.09,4.71,4.71,0,0,1-.87-1.59A6.2,6.2,0,0,1,28,56.3a7.85,7.85,0,0,1,.14-1.46,5,5,0,0,1,.44-1.34,4.59,4.59,0,0,1,.8-1.12,4,4,0,0,1,1.21-.84,4.32,4.32,0,0,1,.94-.31,4.73,4.73,0,0,1,1-.1A5.09,5.09,0,0,1,36,52.39l-1.81,2.15a3.1,3.1,0,0,0-.9-.62,2,2,0,0,0-.82-.19,1.46,1.46,0,0,0-.77.21,2,2,0,0,0-.6.56,2.7,2.7,0,0,0-.39.82,3.46,3.46,0,0,0-.13,1,5.4,5.4,0,0,0,.08,1,2.73,2.73,0,0,0,.31.87,1.68,1.68,0,0,0,.62.62A1.86,1.86,0,0,0,32.55,59Z"/><path class="cls-3" d="M37,61.19c.24-.84.5-1.67.76-2.49s.54-1.62.82-2.43.55-1.63.81-2.44.53-1.65.77-2.49h2.28q.74,2.52,1.49,4.92t1.47,4.92l-2.78.49-.18-.73c-.06-.23-.12-.47-.17-.7l-1.05-.07-1-.06c-.06.26-.13.52-.19.78s-.13.52-.2.79Zm4.26-5c-.07.24-.14.48-.2.71l-.21.72.76,0-.18-.7C41.41,56.65,41.35,56.42,41.3,56.19Z"/><path class="cls-3" d="M45.65,61.18c.05-1.65.09-3.29.13-4.92s.08-3.27.13-4.92H47.7l.83,0h.85a7.14,7.14,0,0,1,1.44.16,4.28,4.28,0,0,1,1.32.52,2.94,2.94,0,0,1,1,.94,2.62,2.62,0,0,1,.38,1.44,3.51,3.51,0,0,1-.17,1.09,2.8,2.8,0,0,1-.54.94,2.62,2.62,0,0,1,.52.81,2.7,2.7,0,0,1,.19,1,2.74,2.74,0,0,1-.64,1.85,3.1,3.1,0,0,1-2.36,1.06h-.7l-1.31,0v0Zm2.62-7.54c0,.24,0,.47,0,.7s0,.47,0,.71h1a4.29,4.29,0,0,0,.47,0A2.54,2.54,0,0,0,50.3,55a1.38,1.38,0,0,0,.44-.21.44.44,0,0,0-.08-.76,2.92,2.92,0,0,0-.67-.22,5.81,5.81,0,0,0-.87-.09Zm.11,4.22a2.62,2.62,0,0,1,0,.28v.3l.76.05.75,0a5.92,5.92,0,0,0,.64,0,.52.52,0,0,0,.34-.13c.07-.09,0-.16-.13-.21a2.92,2.92,0,0,0-.61-.14l-.88-.08Z"/><path class="cls-3" d="M53.68,61.18c0-1.65.09-3.29.12-4.92s.08-3.27.13-4.92h1.8l.83,0h.84a7.23,7.23,0,0,1,1.45.16,4.23,4.23,0,0,1,1.31.52,3.08,3.08,0,0,1,1,.94,2.61,2.61,0,0,1,.37,1.44,3.23,3.23,0,0,1-.17,1.09,2.94,2.94,0,0,1-.53.94,2.79,2.79,0,0,1,.51.81,2.51,2.51,0,0,1,.19,1,2.78,2.78,0,0,1-.63,1.85,3.13,3.13,0,0,1-2.37,1.06H57.8l-1.31,0v0Zm2.61-7.54c0,.24,0,.47,0,.7s0,.47,0,.71h1a4.12,4.12,0,0,0,.46,0,2.34,2.34,0,0,0,.54-.09,1.29,1.29,0,0,0,.44-.21.43.43,0,0,0,.19-.37.44.44,0,0,0-.27-.39,2.92,2.92,0,0,0-.67-.22,5.54,5.54,0,0,0-.86-.09Zm.11,4.22a2.64,2.64,0,0,1,0,.28v.3l.75.05.75,0a5.6,5.6,0,0,0,.64,0,.55.55,0,0,0,.35-.13c.06-.09,0-.16-.13-.21a3,3,0,0,0-.62-.14l-.87-.08Z"/><path class="cls-3" d="M61.7,61.19c.25-.84.5-1.67.77-2.49l.81-2.43c.28-.82.55-1.63.82-2.44s.52-1.65.76-2.49h2.28c.5,1.68,1,3.32,1.49,4.92s1,3.24,1.48,4.92l-2.79.49c0-.25-.11-.49-.17-.73l-.18-.7-1-.07-1.05-.06c-.07.26-.13.52-.2.78s-.13.52-.2.79Zm4.26-5c-.07.24-.13.48-.2.71s-.13.48-.21.72l.76,0c0-.24-.11-.47-.17-.7S66,56.42,66,56.19Z"/><path class="cls-3" d="M17.77,70.1a4.29,4.29,0,0,1-.27,1.6,3.09,3.09,0,0,1-.76,1.12,3.21,3.21,0,0,1-1.18.68,5.77,5.77,0,0,1-1.53.3v0h-2.1l.24-7.38h1.59a5.7,5.7,0,0,1,1.25.13,4.15,4.15,0,0,1,1.13.44,3.29,3.29,0,0,1,.89.78,3.12,3.12,0,0,1,.56,1.14c.05.19.1.38.13.57A3.81,3.81,0,0,1,17.77,70.1Zm-1.88-.21a2.47,2.47,0,0,0-.21-.87,1.36,1.36,0,0,0-.44-.53,1.81,1.81,0,0,0-.63-.28,5.7,5.7,0,0,0-.77-.11L14,71.72a6.31,6.31,0,0,0,.84-.08,1.38,1.38,0,0,0,.6-.27,1,1,0,0,0,.36-.54A3,3,0,0,0,15.89,69.89Z"/><path class="cls-3" d="M17.92,70.11a4.92,4.92,0,0,1,.23-1.51,3.68,3.68,0,0,1,.67-1.23,3,3,0,0,1,1.1-.82,3.52,3.52,0,0,1,1.5-.3,3.6,3.6,0,0,1,1.51.3,3.11,3.11,0,0,1,1.1.82,3.84,3.84,0,0,1,.66,1.23,4.92,4.92,0,0,1,.22,1.51,5,5,0,0,1-.22,1.52A3.78,3.78,0,0,1,24,72.89a3.09,3.09,0,0,1-1.09.86,3.47,3.47,0,0,1-1.52.32,3.38,3.38,0,0,1-1.5-.32,3.13,3.13,0,0,1-1.1-.86,3.63,3.63,0,0,1-.67-1.26A5,5,0,0,1,17.92,70.11Zm2.11,0a3.74,3.74,0,0,0,.06.68,1.87,1.87,0,0,0,.23.6,1.1,1.1,0,0,0,.42.41,1.29,1.29,0,0,0,.68.16,1.27,1.27,0,0,0,.68-.16,1.15,1.15,0,0,0,.43-.42,1.9,1.9,0,0,0,.22-.59,4.94,4.94,0,0,0,.05-.68,3.69,3.69,0,0,0-.05-.68,1.44,1.44,0,0,0-.2-.56,1,1,0,0,0-.42-.38,1.6,1.6,0,0,0-.71-.14,1.55,1.55,0,0,0-.7.14.92.92,0,0,0-.43.37,1.5,1.5,0,0,0-.21.55A5.12,5.12,0,0,0,20,70.11Z"/><path class="cls-3" d="M28.45,72.2a1.52,1.52,0,0,0,1.07-.35l-1.21-.09V70.14l3.13-.25v1l.22,3H29.55v-.07a3.5,3.5,0,0,1-1.11.17,3.32,3.32,0,0,1-1.45-.3,3.26,3.26,0,0,1-1.06-.81,3.65,3.65,0,0,1-.65-1.2,4.59,4.59,0,0,1-.22-1.45,5.77,5.77,0,0,1,.1-1.1,4,4,0,0,1,.33-1,3.57,3.57,0,0,1,.6-.84,3,3,0,0,1,.91-.64,3.92,3.92,0,0,1,.71-.22,3.63,3.63,0,0,1,.73-.08,3.76,3.76,0,0,1,2.56.95l-1.36,1.61a2.42,2.42,0,0,0-.67-.47,1.62,1.62,0,0,0-.61-.14,1.06,1.06,0,0,0-.58.16,1.29,1.29,0,0,0-.45.42,1.72,1.72,0,0,0-.29.61,2.55,2.55,0,0,0-.1.74,4.49,4.49,0,0,0,.06.73,1.93,1.93,0,0,0,.23.65,1.3,1.3,0,0,0,.46.47A1.44,1.44,0,0,0,28.45,72.2Z"/><path class="cls-3" d="M35.2,72.2a1.49,1.49,0,0,0,1.06-.35l-1.21-.09V70.14l3.13-.25v1l.22,3H36.29l0-.07a3.54,3.54,0,0,1-1.11.17,3.32,3.32,0,0,1-1.45-.3,3.15,3.15,0,0,1-1.06-.81,3.32,3.32,0,0,1-.65-1.2,4.59,4.59,0,0,1-.22-1.45,5.77,5.77,0,0,1,.1-1.1,3.36,3.36,0,0,1,.33-1,3.08,3.08,0,0,1,.6-.84,3,3,0,0,1,.9-.64,4.18,4.18,0,0,1,.71-.22,3.72,3.72,0,0,1,.74-.08,3.78,3.78,0,0,1,2.56.95L36.4,68.85a2.57,2.57,0,0,0-.67-.47,1.67,1.67,0,0,0-.62-.14,1.08,1.08,0,0,0-.58.16,1.49,1.49,0,0,0-.45.42,1.92,1.92,0,0,0-.29.61,2.55,2.55,0,0,0-.1.74,4.49,4.49,0,0,0,.06.73,1.94,1.94,0,0,0,.24.65,1.22,1.22,0,0,0,.46.47A1.44,1.44,0,0,0,35.2,72.2Z"/><path class="cls-3" d="M39.89,70.93l-2.06-4.05,1.5-.87,1.49,2.41L42.32,66l1.42.82-2,4.08c0,.48.06,1,.08,1.45s0,1,.07,1.45H39.75l.07-1.46C39.84,71.9,39.86,71.41,39.89,70.93Z"/><path class="cls-3" d="M52.32,70.1a4.29,4.29,0,0,1-.27,1.6,3,3,0,0,1-.76,1.12,3.21,3.21,0,0,1-1.18.68,5.77,5.77,0,0,1-1.53.3v0h-2.1l.24-7.38h1.59a5.7,5.7,0,0,1,1.25.13,4.15,4.15,0,0,1,1.13.44,3.13,3.13,0,0,1,1.45,1.92c0,.19.1.38.13.57A3.81,3.81,0,0,1,52.32,70.1Zm-1.88-.21a2.47,2.47,0,0,0-.21-.87,1.36,1.36,0,0,0-.44-.53,1.81,1.81,0,0,0-.63-.28,5.55,5.55,0,0,0-.76-.11l.12,3.62a6.31,6.31,0,0,0,.84-.08,1.48,1.48,0,0,0,.61-.27,1.09,1.09,0,0,0,.35-.54A3,3,0,0,0,50.44,69.89Z"/><path class="cls-3" d="M51.63,73.84c.18-.64.38-1.26.58-1.87s.4-1.22.61-1.83l.61-1.83q.3-.91.57-1.86h1.71c.37,1.25.74,2.48,1.12,3.69s.74,2.43,1.1,3.69l-2.08.36c-.05-.18-.09-.36-.13-.54s-.09-.36-.14-.53l-.78-.05L54,73c0,.2-.1.4-.14.59l-.15.59Zm3.19-3.76c0,.19-.09.37-.14.54s-.1.36-.16.54l.57,0c0-.18-.09-.35-.13-.53S54.87,70.26,54.82,70.08Z"/><path class="cls-3" d="M58.57,70.93l-2.06-4.05L58,66l1.48,2.41L61,66l1.41.82-2,4.08c0,.48,0,1,.07,1.45s0,1,.08,1.45H58.43l.06-1.46C58.51,71.9,58.54,71.41,58.57,70.93Z"/><path class="cls-3" d="M69,72a3,3,0,0,1-3,2,3.37,3.37,0,0,1-1.46-.3,3.09,3.09,0,0,1-1.07-.82,3.64,3.64,0,0,1-.66-1.21,5,5,0,0,1-.22-1.47,5.48,5.48,0,0,1,.22-1.55,3.49,3.49,0,0,1,.67-1.23,3,3,0,0,1,1.1-.82,3.85,3.85,0,0,1,1.54-.29,3.43,3.43,0,0,1,1.31.24,3.59,3.59,0,0,1,1.13.72l-1.35,1.61a2.54,2.54,0,0,0-.66-.47,1.4,1.4,0,0,0-.57-.14,1.1,1.1,0,0,0-.75.29,2.08,2.08,0,0,0-.51.73,2.64,2.64,0,0,0-.22.94,2.61,2.61,0,0,0,.11.94,1.59,1.59,0,0,0,.48.73,1.38,1.38,0,0,0,.91.29,1.67,1.67,0,0,0,.79-.21,1.35,1.35,0,0,0,.58-.58Z"/><path class="cls-3" d="M69.12,73.84c.18-.64.37-1.26.57-1.87l.61-1.83c.21-.61.41-1.22.61-1.83s.4-1.23.58-1.86H73.2q.55,1.88,1.11,3.69c.38,1.2.74,2.43,1.11,3.69l-2.09.36c0-.18-.08-.36-.13-.54s-.09-.36-.13-.53l-.79-.05-.78,0-.15.59-.15.59Zm3.19-3.76q-.07.28-.15.54c0,.18-.1.36-.16.54l.57,0c0-.18-.08-.35-.13-.53S72.35,70.26,72.31,70.08Z"/><path class="cls-3" d="M75.58,73.83q0-1.86.09-3.69c0-1.23.06-2.46.1-3.69h1.4l.47,0h.47a3.61,3.61,0,0,1,1.33.23,3.2,3.2,0,0,1,1,.67,3.09,3.09,0,0,1,.7,1,3.62,3.62,0,0,1,.25,1.33A3.83,3.83,0,0,1,81.22,71a3.08,3.08,0,0,1-.64,1.09l1.06,1.69-1.5.87,0,0v0l-1.3-1.59a5.23,5.23,0,0,1-.57.06c-.2,0-.4,0-.6,0,0,.11,0,.22,0,.33s0,.22,0,.34Zm2-5.65c0,.48,0,1,0,1.43l0,1.43a5.46,5.46,0,0,0,.69-.1,1.8,1.8,0,0,0,.62-.25,1.29,1.29,0,0,0,.44-.43,1.23,1.23,0,0,0,.17-.67,1.58,1.58,0,0,0-.16-.79,1,1,0,0,0-.44-.42,1.54,1.54,0,0,0-.63-.17C78.06,68.19,77.81,68.18,77.54,68.18Z"/><path class="cls-3" d="M81.79,73.83q0-1.86.09-3.69c0-1.23.06-2.46.1-3.69h1.11l1.57-.1,1.57-.09v2.11L85,68.29l-1.24-.07c0,.17,0,.35,0,.52s0,.36,0,.53l.93-.07.93-.07v2.11l-.9-.07-.92-.06c0,.16,0,.31,0,.46s0,.31,0,.47L85,72l1.19-.07V74l-1.5-.08-1.5-.09Z"/></g></g></svg>