<svg xmlns="http://www.w3.org/2000/svg" width="98.56" height="94.19" viewBox="0 0 98.56 94.19"><defs><style>.cls-1{fill:#27aae1;}.cls-2{fill:#fff;}.cls-3{fill:#334185;}</style></defs><g id="Layer_2" data-name="Layer 2"><g id="Layer_1-2" data-name="Layer 1"><path class="cls-1" d="M87.82,38.51A38.52,38.52,0,1,1,49.3,0,38.52,38.52,0,0,1,87.82,38.51"/><path class="cls-2" d="M49.3,75.43A37,37,0,0,1,18.69,59.16a37,37,0,0,1-3.41-35A37,37,0,0,1,63.68,4.49,36.53,36.53,0,0,1,70,7.89a37.39,37.39,0,0,1,5.46,4.51,36.87,36.87,0,0,1,4.51,46.76,37.33,37.33,0,0,1-10,10,36.78,36.78,0,0,1-20.65,6.3Zm0-72.88a36,36,0,1,0,36,36A36,36,0,0,0,49.3,2.55Z"/><path class="cls-3" d="M45.71,16.58c1.77-.23,2.88-3,2.56-5.5s-2-3.74-3.73-3.51-3,1.85-2.71,4.34S43.93,16.81,45.71,16.58Z"/><path class="cls-3" d="M40.94,15.32c-1-1.9-2.79-2.36-4.24-1.58s-2,2.51-1,4.41S39,21.4,40.42,20.62,42,17.22,40.94,15.32Z"/><path class="cls-3" d="M52.9,16.58c-1.78-.23-2.88-3-2.56-5.5s1.95-3.74,3.73-3.51,3,1.85,2.7,4.34S54.68,16.81,52.9,16.58Z"/><path class="cls-3" d="M57.67,15.32c1-1.9,2.79-2.36,4.24-1.58s2,2.51,1,4.41-3.27,3.25-4.72,2.47S56.64,17.22,57.67,15.32Z"/><path class="cls-3" d="M38.38,35.31c2.66,4.59,9.11,3.38,11.17.61,2.05,2.77,8.5,4,11.16-.61,5-8.74-5.19-14.7-9.73-17.76a2.79,2.79,0,0,0-2.92.06C43.42,20.57,33.35,26.6,38.38,35.31Z"/><path class="cls-2" d="M36.33,46.29a1.61,1.61,0,0,0,1.11-.36l-1.26-.1v-1.7l3.27-.25v1L39.68,48h-2.2v-.07a3.79,3.79,0,0,1-2.68-.14,3.29,3.29,0,0,1-1.1-.85A3.53,3.53,0,0,1,33,45.68a5,5,0,0,1-.23-1.52A6.12,6.12,0,0,1,32.9,43,3.92,3.92,0,0,1,33.24,42a3.22,3.22,0,0,1,.63-.88,3.18,3.18,0,0,1,1-.67,3.54,3.54,0,0,1,.74-.23,3.36,3.36,0,0,1,.77-.08,4,4,0,0,1,2.68,1l-1.42,1.68a2.84,2.84,0,0,0-.71-.49,1.6,1.6,0,0,0-.64-.15,1.13,1.13,0,0,0-.6.17,1.55,1.55,0,0,0-.48.44,2.1,2.1,0,0,0-.3.64,2.76,2.76,0,0,0-.11.77,5,5,0,0,0,.07.77,1.9,1.9,0,0,0,.24.68,1.35,1.35,0,0,0,.49.49A1.41,1.41,0,0,0,36.33,46.29Z"/><path class="cls-2" d="M39.85,48q.28-1,.6-2c.21-.64.42-1.28.64-1.92s.43-1.27.64-1.91.41-1.29.6-1.95h1.78c.39,1.32.78,2.6,1.17,3.86s.78,2.54,1.16,3.86l-2.18.38c0-.19-.09-.38-.14-.56s-.1-.38-.14-.56l-.82,0-.82-.05c-.05.21-.11.41-.16.61l-.15.62Zm3.34-3.93c-.06.19-.11.38-.16.57s-.1.37-.16.56l.59,0c0-.19-.09-.37-.14-.55S43.23,44.26,43.19,44.07Z"/><path class="cls-2" d="M46.6,48c0-1.3.07-2.58.1-3.86s.07-2.57.1-3.86h1.41l.65,0h.66a4.92,4.92,0,0,1,1.14.13,3.35,3.35,0,0,1,1,.4,2.31,2.31,0,0,1,.75.74,2,2,0,0,1,.29,1.13,2.61,2.61,0,0,1-.13.85,2.28,2.28,0,0,1-.42.74,2.05,2.05,0,0,1,.4.63,2,2,0,0,1,.15.79,2.18,2.18,0,0,1-.49,1.45,2.39,2.39,0,0,1-1.33.78,3,3,0,0,1-.53,0h-.55l-1,0H46.6Zm2-5.91c0,.18,0,.36,0,.54s0,.37,0,.56h1.13a3,3,0,0,0,.43-.08.89.89,0,0,0,.34-.16.34.34,0,0,0-.06-.6,2.06,2.06,0,0,0-.53-.17,6.48,6.48,0,0,0-.67-.08Zm.09,3.31a1.55,1.55,0,0,1,0,.22v.23l.59,0h.59l.5,0c.15,0,.24-.06.27-.11s0-.12-.09-.17a3,3,0,0,0-.49-.1l-.68-.07Z"/><path class="cls-2" d="M52.9,48c0-1.3.07-2.58.1-3.86s.06-2.57.1-3.86h1.41l.65,0h.66a4.9,4.9,0,0,1,1.13.13,3.41,3.41,0,0,1,1,.4,2.52,2.52,0,0,1,.75.74A2.11,2.11,0,0,1,59,42.65a2.61,2.61,0,0,1-.14.85,2.08,2.08,0,0,1-.41.74,2.05,2.05,0,0,1,.4.63,2,2,0,0,1,.15.79,2.18,2.18,0,0,1-.5,1.45,2.4,2.4,0,0,1-1.32.78,3.1,3.1,0,0,1-.54,0h-.54l-1,0H52.9ZM55,42.08c0,.18,0,.36,0,.54s0,.37,0,.56h1.14a2.84,2.84,0,0,0,.42-.08.94.94,0,0,0,.35-.16.37.37,0,0,0,.14-.29.35.35,0,0,0-.21-.31,2,2,0,0,0-.52-.17,6.69,6.69,0,0,0-.68-.08ZM55,45.39c0,.07,0,.14,0,.22v.23l.59,0h.59l.5,0a.43.43,0,0,0,.27-.11c0-.07,0-.12-.1-.17a3,3,0,0,0-.49-.1l-.68-.07Z"/><path class="cls-2" d="M59.19,48q.29-1,.6-2l.64-1.92c.22-.63.43-1.27.64-1.91s.41-1.29.6-1.95h1.79c.39,1.32.78,2.6,1.17,3.86s.77,2.54,1.15,3.86l-2.18.38c0-.19-.09-.38-.14-.56s-.09-.38-.13-.56l-.82,0-.83-.05-.15.61-.15.62Zm3.34-3.93-.15.57c-.05.18-.11.37-.17.56l.6,0c-.05-.19-.09-.37-.14-.55S62.58,44.26,62.53,44.07Z"/><path class="cls-2" d="M24.73,55a3.37,3.37,0,0,1-.21,1.25,2.38,2.38,0,0,1-.6.88,2.7,2.7,0,0,1-.92.54,4.82,4.82,0,0,1-1.2.23v0H20.15l.19-5.79h1.25a4.6,4.6,0,0,1,1,.11,2.93,2.93,0,0,1,.88.34,2.43,2.43,0,0,1,1.14,1.51,3.63,3.63,0,0,1,.1.45A2.32,2.32,0,0,1,24.73,55Zm-1.47-.17a1.93,1.93,0,0,0-.17-.68,1.11,1.11,0,0,0-.34-.42,1.35,1.35,0,0,0-.49-.21,3.72,3.72,0,0,0-.61-.09l.1,2.83a3.23,3.23,0,0,0,.66-.06,1,1,0,0,0,.47-.2.94.94,0,0,0,.29-.43A2.48,2.48,0,0,0,23.26,54.82Z"/><path class="cls-2" d="M24.85,55A3.8,3.8,0,0,1,25,53.81a2.73,2.73,0,0,1,.53-1,2.34,2.34,0,0,1,.86-.65A2.73,2.73,0,0,1,27.6,52a2.76,2.76,0,0,1,1.18.24,2.42,2.42,0,0,1,.86.65,2.87,2.87,0,0,1,.52,1A3.81,3.81,0,0,1,30.33,55a3.89,3.89,0,0,1-.17,1.19,3.12,3.12,0,0,1-.52,1,2.44,2.44,0,0,1-.85.67,2.64,2.64,0,0,1-1.19.25,2.59,2.59,0,0,1-1.18-.25,2.38,2.38,0,0,1-.86-.67,3,3,0,0,1-.53-1A3.9,3.9,0,0,1,24.85,55Zm1.66,0a2.32,2.32,0,0,0,0,.53,1.26,1.26,0,0,0,.17.46.87.87,0,0,0,.33.33,1.08,1.08,0,0,0,.54.13,1.06,1.06,0,0,0,.53-.13,1,1,0,0,0,.34-.33,1.68,1.68,0,0,0,.17-.46,3.08,3.08,0,0,0,0-.53,3.12,3.12,0,0,0,0-.54,1.29,1.29,0,0,0-.16-.44,1,1,0,0,0-.33-.3,1.26,1.26,0,0,0-.55-.1,1.31,1.31,0,0,0-.56.1.85.85,0,0,0-.33.29,1,1,0,0,0-.16.44A3.16,3.16,0,0,0,26.51,55Z"/><path class="cls-2" d="M33.11,56.64a1.25,1.25,0,0,0,.84-.28l-1-.07V55l2.45-.19v.76l.18,2.33H34v0a2.93,2.93,0,0,1-2-.1,2.54,2.54,0,0,1-.84-.64,2.94,2.94,0,0,1-.51-.94A3.88,3.88,0,0,1,30.46,55a4.11,4.11,0,0,1,.08-.86,3.05,3.05,0,0,1,.26-.79,2.74,2.74,0,0,1,.47-.66,2.3,2.3,0,0,1,.71-.49,2.72,2.72,0,0,1,.55-.18,2.93,2.93,0,0,1,.58-.06,3,3,0,0,1,2,.74L34.05,54a1.8,1.8,0,0,0-.52-.37,1.18,1.18,0,0,0-.48-.11.9.9,0,0,0-.46.12,1,1,0,0,0-.35.33,1.53,1.53,0,0,0-.23.48,2.2,2.2,0,0,0-.08.58,3.66,3.66,0,0,0,.05.57,1.46,1.46,0,0,0,.18.52,1,1,0,0,0,.36.36A1.08,1.08,0,0,0,33.11,56.64Z"/><path class="cls-2" d="M38.4,56.64a1.23,1.23,0,0,0,.84-.28l-1-.07V55l2.45-.19v.76l.18,2.33H39.26v0a2.93,2.93,0,0,1-2-.1,2.4,2.4,0,0,1-.83-.64,2.78,2.78,0,0,1-.52-.94A3.88,3.88,0,0,1,35.75,55a4.91,4.91,0,0,1,.08-.86,3.05,3.05,0,0,1,.26-.79,2.74,2.74,0,0,1,.47-.66,2.3,2.3,0,0,1,.71-.49,2.72,2.72,0,0,1,.55-.18A2.93,2.93,0,0,1,38.4,52a3,3,0,0,1,2,.74L39.35,54a2,2,0,0,0-.53-.37,1.11,1.11,0,0,0-.48-.11.9.9,0,0,0-.46.12,1.1,1.1,0,0,0-.35.33,1.53,1.53,0,0,0-.23.48,2.2,2.2,0,0,0-.08.58,3.66,3.66,0,0,0,.05.57,1.46,1.46,0,0,0,.18.52,1,1,0,0,0,.37.36A1,1,0,0,0,38.4,56.64Z"/><path class="cls-2" d="M42.08,55.63l-1.61-3.17,1.17-.68,1.17,1.89L44,51.8l1.11.64-1.59,3.2.06,1.14.06,1.14H42l0-1.14Z"/><path class="cls-2" d="M51.83,55a3.37,3.37,0,0,1-.21,1.25,2.38,2.38,0,0,1-.6.88,2.7,2.7,0,0,1-.92.54,4.82,4.82,0,0,1-1.2.23v0H47.25l.19-5.79h1.25a4.6,4.6,0,0,1,1,.11,2.83,2.83,0,0,1,.88.34,2.55,2.55,0,0,1,.7.61,2.37,2.37,0,0,1,.44.9,3.63,3.63,0,0,1,.1.45A2.32,2.32,0,0,1,51.83,55Zm-1.47-.17a1.73,1.73,0,0,0-.17-.68,1.11,1.11,0,0,0-.34-.42,1.28,1.28,0,0,0-.49-.21,3.72,3.72,0,0,0-.61-.09l.1,2.83a3.23,3.23,0,0,0,.66-.06A1,1,0,0,0,50,56a1,1,0,0,0,.28-.43A2.48,2.48,0,0,0,50.36,54.82Z"/><path class="cls-2" d="M51.29,57.92q.23-.75.45-1.47L52.22,55q.26-.72.48-1.44c.16-.48.31-1,.45-1.46h1.34c.29,1,.59,2,.88,2.89s.58,1.91.87,2.9l-1.64.29c0-.15-.07-.29-.1-.43s-.07-.28-.11-.42l-.61,0-.62,0c0,.15-.08.31-.11.46l-.12.47Zm2.51-3-.12.42-.12.43.44,0c0-.14-.06-.27-.1-.41S53.83,55.11,53.8,55Z"/><path class="cls-2" d="M56.73,55.63l-1.61-3.17,1.17-.68,1.17,1.89,1.18-1.87,1.11.64-1.59,3.2c0,.38,0,.76.06,1.14l.06,1.14H56.63l0-1.14C56.69,56.4,56.71,56,56.73,55.63Z"/><path class="cls-2" d="M64.89,56.45A2.53,2.53,0,0,1,64,57.62a2.46,2.46,0,0,1-1.43.4,2.63,2.63,0,0,1-1.15-.23,2.31,2.31,0,0,1-.83-.65,2.66,2.66,0,0,1-.52-1A3.6,3.6,0,0,1,59.87,55a3.89,3.89,0,0,1,.18-1.21,2.67,2.67,0,0,1,.52-1,2.4,2.4,0,0,1,.86-.64A3,3,0,0,1,62.64,52a2.82,2.82,0,0,1,1,.18,3.15,3.15,0,0,1,.88.57L63.5,54a2.11,2.11,0,0,0-.52-.37,1,1,0,0,0-.45-.11.82.82,0,0,0-.58.22,1.81,1.81,0,0,0-.41.57,2.58,2.58,0,0,0-.17.74,1.78,1.78,0,0,0,.09.74,1.18,1.18,0,0,0,.38.57,1,1,0,0,0,.71.23,1.33,1.33,0,0,0,.62-.16,1.05,1.05,0,0,0,.45-.46Z"/><path class="cls-2" d="M65,57.92q.21-.75.45-1.47L65.94,55l.48-1.44c.16-.48.31-1,.45-1.46h1.34c.29,1,.58,2,.87,2.89s.59,1.91.87,2.9l-1.63.29c0-.15-.07-.29-.11-.43s-.07-.28-.1-.42l-.62,0-.61,0-.12.46c0,.15-.08.31-.11.47Zm2.5-3a4.26,4.26,0,0,1-.11.42c0,.14-.08.28-.13.43l.45,0c0-.14-.07-.27-.1-.41S67.55,55.11,67.51,55Z"/><path class="cls-2" d="M70.08,57.91c0-1,0-1.94.07-2.9s0-1.92.08-2.89h1.83a2.91,2.91,0,0,1,1,.19,2.44,2.44,0,0,1,.83.52,2.47,2.47,0,0,1,.55.81,2.68,2.68,0,0,1,.19,1,3,3,0,0,1-.17,1,2.51,2.51,0,0,1-.5.85l.83,1.33-1.17.68,0,0v0l-1-1.25a3.47,3.47,0,0,1-.45.06l-.47,0a2.26,2.26,0,0,1,0,.26c0,.08,0,.17,0,.26Zm1.53-4.43c0,.38,0,.75,0,1.12l0,1.13a4.68,4.68,0,0,0,.54-.09,1.61,1.61,0,0,0,.49-.19,1.14,1.14,0,0,0,.35-.34,1,1,0,0,0,.13-.53,1.33,1.33,0,0,0-.13-.62,1,1,0,0,0-.34-.33,1.53,1.53,0,0,0-.5-.13Z"/><path class="cls-2" d="M75,57.91c0-1,0-1.94.07-2.9s0-1.92.08-2.89H76l1.23-.07L78.44,52v1.66l-1-.06-1-.06c0,.14,0,.28,0,.41s0,.28,0,.42l.73-.06.73-.05v1.65l-.71-.05-.72,0c0,.12,0,.24,0,.36s0,.24,0,.37l.93-.06.94-.05v1.65L77.26,58l-1.18-.07Z"/><path class="cls-1" d="M9.73,90.83A5,5,0,0,1,8,93.11a4.83,4.83,0,0,1-2.78.78A5.21,5.21,0,0,1,3,93.43a4.64,4.64,0,0,1-1.62-1.25,5.21,5.21,0,0,1-1-1.84A7.15,7.15,0,0,1,0,88.1a7.65,7.65,0,0,1,.34-2.34,5.16,5.16,0,0,1,1-1.88A4.54,4.54,0,0,1,3,82.64a5.7,5.7,0,0,1,2.35-.45,5.25,5.25,0,0,1,2,.36,5.89,5.89,0,0,1,1.72,1.1L7,86.1a3.8,3.8,0,0,0-1-.71,2,2,0,0,0-.88-.22A1.67,1.67,0,0,0,4,85.61a3.11,3.11,0,0,0-.77,1.11,4,4,0,0,0-.34,1.43,3.73,3.73,0,0,0,.17,1.43,2.3,2.3,0,0,0,.74,1.11,2,2,0,0,0,1.37.44,2.57,2.57,0,0,0,1.2-.32,2.08,2.08,0,0,0,.88-.88Z"/><path class="cls-1" d="M10,88a7.75,7.75,0,0,1,.34-2.3,5.42,5.42,0,0,1,1-1.86A4.65,4.65,0,0,1,13,82.6a5.35,5.35,0,0,1,2.29-.46,5.32,5.32,0,0,1,2.29.46,4.65,4.65,0,0,1,1.67,1.26,5.4,5.4,0,0,1,1,1.86,7.75,7.75,0,0,1,.33,2.3,8,8,0,0,1-.33,2.31,5.8,5.8,0,0,1-1,1.91,4.86,4.86,0,0,1-1.66,1.31,5.24,5.24,0,0,1-2.31.48A5.21,5.21,0,0,1,13,93.55a4.89,4.89,0,0,1-1.67-1.31,5.65,5.65,0,0,1-1-1.91A8,8,0,0,1,10,88Zm3.21,0a5.92,5.92,0,0,0,.09,1,2.79,2.79,0,0,0,.34.89,1.74,1.74,0,0,0,.65.64,2,2,0,0,0,1,.24,2,2,0,0,0,1-.24A1.81,1.81,0,0,0,17,90a2.69,2.69,0,0,0,.33-.9,5.72,5.72,0,0,0,.09-1,6.76,6.76,0,0,0-.08-1,2.33,2.33,0,0,0-.31-.85,1.51,1.51,0,0,0-.64-.58,2.49,2.49,0,0,0-1.07-.2,2.35,2.35,0,0,0-1.07.2,1.49,1.49,0,0,0-.65.56,2.06,2.06,0,0,0-.31.85A5.86,5.86,0,0,0,13.16,88Z"/><path class="cls-1" d="M20.81,93.66q.09-2.82.15-5.61c0-1.85.09-3.72.14-5.6h2.63l1.15,2.36c.39.77.77,1.55,1.16,2.32.33-.77.66-1.54,1-2.31s.64-1.56,1-2.37H31.2c-.06,1.88-.1,3.75-.15,5.6s-.09,3.73-.14,5.61H28.3c0-.73-.05-1.46-.07-2.18l-.06-2.19-.47,1-.48,1h-2.7l-.3-.73-.3-.74.1,3.89Z"/><path class="cls-1" d="M32.06,91c0-1,0-1.94.08-2.9s0-1.93.08-2.9l-.4,0-.38,0V82.51l2.16-.15,2.16-.15v3.2l-.76,0,.06,2.71.06,2.71.33,0,.31,0v3.21l-4.32-.29V91l.31,0Z"/><path class="cls-1" d="M36,93.66q.09-2.82.15-5.61c0-1.85.09-3.72.14-5.6H38.9q.81,1.32,1.59,2.64c.52.88,1,1.76,1.59,2.66,0-.9,0-1.78.07-2.66s.05-1.76.07-2.64h2.61c.06,1.88.1,3.75.15,5.6s.09,3.73.14,5.61H41.9L40.48,91c-.48-.88-.95-1.78-1.43-2.69,0,.9,0,1.79.07,2.68s.05,1.78.07,2.69Z"/><path class="cls-1" d="M50.51,91.2a2.33,2.33,0,0,0,1.61-.53l-1.84-.15V88.05L55,87.69v1.45l.34,4.52H52.17l0-.09a5.2,5.2,0,0,1-1.68.25,5.13,5.13,0,0,1-2.21-.45,4.93,4.93,0,0,1-1.61-1.24,5.17,5.17,0,0,1-1-1.82,7,7,0,0,1-.34-2.21,9.15,9.15,0,0,1,.15-1.66A5.86,5.86,0,0,1,46,84.91a5.15,5.15,0,0,1,.91-1.28,5,5,0,0,1,1.38-1,5.56,5.56,0,0,1,1.07-.34,5.43,5.43,0,0,1,1.13-.12,5.8,5.8,0,0,1,3.89,1.44L52.33,86.1a3.57,3.57,0,0,0-1-.71,2.24,2.24,0,0,0-.93-.22,1.66,1.66,0,0,0-.88.24,2.21,2.21,0,0,0-.69.64,3.07,3.07,0,0,0-.44.93,4.1,4.1,0,0,0-.16,1.12,7,7,0,0,0,.1,1.12,2.92,2.92,0,0,0,.35,1,2,2,0,0,0,.71.71A2.19,2.19,0,0,0,50.51,91.2Z"/><path class="cls-1" d="M66.1,85.06c-.29-.06-.57-.1-.84-.13a8,8,0,0,0-.86-.05c-.22,0-.44,0-.67,0a5,5,0,0,0-.63.12,1.71,1.71,0,0,0-.49.23.62.62,0,0,0-.25.35c0,.12,0,.23.19.34a2.1,2.1,0,0,0,.51.31q.3.14.6.24l.43.15a10.76,10.76,0,0,1,1.25.55,5.35,5.35,0,0,1,1.09.74,3.19,3.19,0,0,1,.77,1,3.13,3.13,0,0,1,.29,1.39A3.85,3.85,0,0,1,67.14,92a3.54,3.54,0,0,1-1,1.2,4.33,4.33,0,0,1-1.4.72,5.87,5.87,0,0,1-1.7.24A7.28,7.28,0,0,1,61.47,94c-.52-.11-1-.24-1.56-.39l1.09-3a8.16,8.16,0,0,0,1.2.32,7.64,7.64,0,0,0,1.25.11,1.81,1.81,0,0,0,.69-.14.56.56,0,0,0,.34-.56.6.6,0,0,0-.37-.52,7.32,7.32,0,0,0-.91-.41L62,88.94a4.77,4.77,0,0,1-1.18-.68,3.51,3.51,0,0,1-.92-1,3,3,0,0,1-.37-1.53A2.8,2.8,0,0,1,60,84.16,3.59,3.59,0,0,1,61,83.07a4.9,4.9,0,0,1,1.45-.65,6.11,6.11,0,0,1,1.57-.21,12,12,0,0,1,2.5.27Z"/><path class="cls-1" d="M67.72,88a7.44,7.44,0,0,1,.34-2.3,5.42,5.42,0,0,1,1-1.86,4.61,4.61,0,0,1,1.66-1.26,6,6,0,0,1,4.59,0A4.61,4.61,0,0,1,77,83.86a5.24,5.24,0,0,1,1,1.86,7.44,7.44,0,0,1,.34,2.3A7.64,7.64,0,0,1,78,90.33a5.62,5.62,0,0,1-1,1.91,4.76,4.76,0,0,1-1.66,1.31,5.75,5.75,0,0,1-4.6,0,4.86,4.86,0,0,1-1.66-1.31,5.65,5.65,0,0,1-1-1.91A7.64,7.64,0,0,1,67.72,88Zm3.2,0a5.1,5.1,0,0,0,.1,1,2.56,2.56,0,0,0,.33.89,1.81,1.81,0,0,0,.65.64,2.35,2.35,0,0,0,2.07,0,1.9,1.9,0,0,0,.65-.64,2.69,2.69,0,0,0,.33-.9,6.83,6.83,0,0,0,.08-1,5.7,5.7,0,0,0-.08-1,2.32,2.32,0,0,0-.3-.85,1.57,1.57,0,0,0-.64-.58,2.55,2.55,0,0,0-1.07-.2,2.42,2.42,0,0,0-1.08.2,1.55,1.55,0,0,0-.65.56A2.21,2.21,0,0,0,71,87,6.93,6.93,0,0,0,70.92,88Z"/><path class="cls-1" d="M78.58,88a7.44,7.44,0,0,1,.34-2.3,5.42,5.42,0,0,1,1-1.86,4.65,4.65,0,0,1,1.67-1.26,5.93,5.93,0,0,1,4.58,0,4.65,4.65,0,0,1,1.67,1.26,5.4,5.4,0,0,1,1,1.86A7.75,7.75,0,0,1,89.2,88a8,8,0,0,1-.33,2.31,5.63,5.63,0,0,1-1,1.91,4.73,4.73,0,0,1-1.65,1.31A5.3,5.3,0,0,1,83.9,94a5.18,5.18,0,0,1-2.29-.48,4.89,4.89,0,0,1-1.67-1.31,5.65,5.65,0,0,1-1-1.91A7.64,7.64,0,0,1,78.58,88Zm3.2,0a5.91,5.91,0,0,0,.1,1,2.58,2.58,0,0,0,.34.89,1.74,1.74,0,0,0,.65.64,2.33,2.33,0,0,0,2.06,0,1.81,1.81,0,0,0,.65-.64,2.69,2.69,0,0,0,.33-.9A5.72,5.72,0,0,0,86,88a6.76,6.76,0,0,0-.08-1,2.53,2.53,0,0,0-.31-.85,1.57,1.57,0,0,0-.64-.58,2.52,2.52,0,0,0-1.07-.2,2.35,2.35,0,0,0-1.07.2,1.49,1.49,0,0,0-.65.56,2.21,2.21,0,0,0-.32.85A6.93,6.93,0,0,0,81.78,88Z"/><path class="cls-1" d="M89.44,93.66c.06-1.88.1-3.75.15-5.61s.09-3.72.14-5.6h2.61q.81,1.32,1.59,2.64c.52.88,1,1.76,1.59,2.66,0-.9,0-1.78.07-2.66s0-1.76.07-2.64h2.61c.06,1.88.1,3.75.15,5.6s.09,3.73.14,5.61H95.34c-.48-.91-1-1.8-1.43-2.68S93,89.2,92.49,88.29c0,.9,0,1.79.07,2.68s0,1.78.07,2.69Z"/></g></g></svg>